<svg width="1200" height="900" viewBox="0 0 1200 900" fill="none" xmlns="http://www.w3.org/2000/svg">
  <rect width="1200" height="900" fill="#F6F0E8"/>
  <rect x="88" y="88" width="1024" height="724" rx="56" fill="#FFFDF9"/>
  <path d="M322 625C358 493 477 398 618 398C759 398 878 493 914 625H322Z" fill="#EAD9C4"/>
  <ellipse cx="618" cy="625" rx="302" ry="62" fill="#D4AF37" fill-opacity="0.18"/>
  <path d="M456 330C456 253.785 517.785 192 594 192H642C718.215 192 780 253.785 780 330V382H456V330Z" fill="#D8A7A6"/>
  <rect x="520" y="168" width="28" height="120" rx="14" fill="#D4AF37"/>
  <rect x="564" y="148" width="28" height="140" rx="14" fill="#D4AF37"/>
  <rect x="608" y="160" width="28" height="128" rx="14" fill="#D4AF37"/>
  <rect x="700" y="148" width="28" height="148" rx="14" fill="#6E5A49"/>
  <rect x="700" y="274" width="28" height="132" rx="14" fill="#6E5A49"/>
  <path d="M420 630H820" stroke="#6E5A49" stroke-width="18" stroke-linecap="round"/>
  <path d="M456 692H784" stroke="#6E5A49" stroke-width="12" stroke-linecap="round" stroke-opacity="0.5"/>
  <text x="600" y="792" text-anchor="middle" fill="#6E5A49" font-family="Georgia, serif" font-size="54">Atelier Table</text>
</svg>
