<svg width="1200" height="900" viewBox="0 0 1200 900" fill="none" xmlns="http://www.w3.org/2000/svg">
  <rect width="1200" height="900" fill="#F6F0E8"/>
  <rect x="90" y="90" width="1020" height="720" rx="56" fill="#FFFDF9"/>
  <circle cx="600" cy="360" r="170" fill="#EAD9C4"/>
  <circle cx="600" cy="320" r="84" fill="#B8836C"/>
  <path d="M430 610C430 514.492 507.492 437 603 437H597C692.508 437 770 514.492 770 610V644H430V610Z" fill="#B8836C"/>
  <path d="M328 682C387.614 607.188 485.159 560 594 560C706.598 560 807.026 610.708 866 690V736H328V682Z" fill="#D4AF37" fill-opacity="0.22"/>
  <path d="M470 250C515 198 572 172 642 172C713 172 778 203 824 262" stroke="#D4AF37" stroke-width="18" stroke-linecap="round"/>
  <path d="M420 242L462 212" stroke="#D4AF37" stroke-width="12" stroke-linecap="round"/>
  <path d="M768 210L816 244" stroke="#D4AF37" stroke-width="12" stroke-linecap="round"/>
  <circle cx="452" cy="208" r="18" fill="#D4AF37"/>
  <circle cx="812" cy="246" r="14" fill="#D4AF37" fill-opacity="0.65"/>
  <text x="600" y="804" text-anchor="middle" fill="#6E5A49" font-family="Georgia, serif" font-size="54">Studio Elara</text>
</svg>
